# xmcd CD database file
#
# Track frame offsets:
#	150
#	22625
#	44225
#
# Disc length: 886 seconds
#
# Revision: 0
# Processed by: cddbd v1.5.1PL2 Copyright (c) Steve Scherf et al.
# Submitted via: CDex 1.51
#
DISCID=1c037403
DTITLE=selfish - Realize
DYEAR=1993
DGENRE=Pop
TTITLE0=Realize
TTITLE1=傘を忘れたふたり
TTITLE2=Realize(オリジナル・カラオケ)
EXTD=YEAR: 1993
EXTT0=
EXTT1=
EXTT2=
PLAYORDER=
